<svg xmlns="http://www.w3.org/2000/svg" xmlns:xlink="http://www.w3.org/1999/xlink" viewBox="0 0 1920 1080"><defs><style>.cls-1{fill:none;}.cls-2{fill:#fff;}.cls-3{fill:url(#New_Pattern_Swatch_1);}</style><pattern id="New_Pattern_Swatch_1" data-name="New Pattern Swatch 1" width="580" height="580" patternUnits="userSpaceOnUse" viewBox="0 0 580 580"><rect class="cls-1" width="580" height="580"/><rect x="486.2" y="579" width="117" height="117"/><rect x="370.2" y="579" width="117" height="117"/><rect x="254.2" y="579" width="117" height="117"/><rect x="138.2" y="579" width="117" height="117"/><rect x="22.2" y="579" width="117" height="117"/><rect x="-93.8" y="579" width="117" height="117"/><rect x="555.8" y="463" width="117" height="117"/><circle class="cls-2" cx="572.8" cy="476.22" r="3.41"/><circle class="cls-2" cx="579.56" cy="557.5" r="3.93"/><rect x="439.8" y="463" width="117" height="117"/><circle class="cls-2" cx="456.8" cy="476.22" r="3.41"/><circle class="cls-2" cx="463.56" cy="557.5" r="3.93"/><circle class="cls-2" cx="507.42" cy="493.26" r="5.07"/><circle class="cls-2" cx="537.78" cy="495.46" r="2.67"/><circle class="cls-2" cx="525.41" cy="560.06" r="2.67"/><circle class="cls-2" cx="479.01" cy="523.19" r="2.67"/><circle class="cls-2" cx="534.93" cy="527.84" r="4.73"/><rect x="323.8" y="463" width="117" height="117"/><circle class="cls-2" cx="340.8" cy="476.22" r="3.41"/><circle class="cls-2" cx="347.56" cy="557.5" r="3.93"/><circle class="cls-2" cx="391.42" cy="493.26" r="5.07"/><circle class="cls-2" cx="421.78" cy="495.46" r="2.67"/><circle class="cls-2" cx="409.41" cy="560.06" r="2.67"/><circle class="cls-2" cx="363.01" cy="523.19" r="2.67"/><circle class="cls-2" cx="418.93" cy="527.84" r="4.73"/><rect x="207.8" y="463" width="117" height="117"/><circle class="cls-2" cx="224.8" cy="476.22" r="3.41"/><circle class="cls-2" cx="231.56" cy="557.5" r="3.93"/><circle class="cls-2" cx="275.42" cy="493.26" r="5.07"/><circle class="cls-2" cx="305.78" cy="495.46" r="2.67"/><circle class="cls-2" cx="293.41" cy="560.06" r="2.67"/><circle class="cls-2" cx="247.01" cy="523.19" r="2.67"/><circle class="cls-2" cx="302.93" cy="527.84" r="4.73"/><rect x="91.8" y="463" width="117" height="117"/><circle class="cls-2" cx="108.8" cy="476.22" r="3.41"/><circle class="cls-2" cx="115.56" cy="557.5" r="3.93"/><circle class="cls-2" cx="159.42" cy="493.26" r="5.07"/><circle class="cls-2" cx="189.78" cy="495.46" r="2.67"/><circle class="cls-2" cx="177.41" cy="560.06" r="2.67"/><circle class="cls-2" cx="131.01" cy="523.19" r="2.67"/><circle class="cls-2" cx="186.93" cy="527.84" r="4.73"/><rect x="-24.2" y="463" width="117" height="117"/><circle class="cls-2" cx="-0.44" cy="557.5" r="3.93"/><circle class="cls-2" cx="43.42" cy="493.26" r="5.07"/><circle class="cls-2" cx="73.78" cy="495.46" r="2.67"/><circle class="cls-2" cx="61.41" cy="560.06" r="2.67"/><circle class="cls-2" cx="15.01" cy="523.19" r="2.67"/><circle class="cls-2" cx="70.93" cy="527.84" r="4.73"/><rect x="509.4" y="347" width="117" height="117"/><circle class="cls-2" cx="526.4" cy="360.22" r="3.41"/><circle class="cls-2" cx="533.16" cy="441.5" r="3.93"/><circle class="cls-2" cx="577.02" cy="377.26" r="5.07"/><circle class="cls-2" cx="548.61" cy="407.19" r="2.67"/><rect x="393.4" y="347" width="117" height="117"/><circle class="cls-2" cx="410.4" cy="360.22" r="3.41"/><circle class="cls-2" cx="417.16" cy="441.5" r="3.93"/><circle class="cls-2" cx="461.02" cy="377.26" r="5.07"/><circle class="cls-2" cx="491.38" cy="379.46" r="2.67"/><circle class="cls-2" cx="479.01" cy="444.06" r="2.67"/><circle class="cls-2" cx="432.61" cy="407.19" r="2.67"/><circle class="cls-2" cx="488.53" cy="411.84" r="4.73"/><rect x="277.4" y="347" width="117" height="117"/><circle class="cls-2" cx="294.4" cy="360.22" r="3.41"/><circle class="cls-2" cx="301.16" cy="441.5" r="3.93"/><circle class="cls-2" cx="345.02" cy="377.26" r="5.07"/><circle class="cls-2" cx="375.38" cy="379.46" r="2.67"/><circle class="cls-2" cx="363.01" cy="444.06" r="2.67"/><circle class="cls-2" cx="316.61" cy="407.19" r="2.67"/><circle class="cls-2" cx="372.53" cy="411.84" r="4.73"/><rect x="161.4" y="347" width="117" height="117"/><circle class="cls-2" cx="178.4" cy="360.22" r="3.41"/><circle class="cls-2" cx="185.16" cy="441.5" r="3.93"/><circle class="cls-2" cx="229.02" cy="377.26" r="5.07"/><circle class="cls-2" cx="259.38" cy="379.46" r="2.67"/><circle class="cls-2" cx="247.01" cy="444.06" r="2.67"/><circle class="cls-2" cx="200.61" cy="407.19" r="2.67"/><circle class="cls-2" cx="256.53" cy="411.84" r="4.73"/><rect x="45.4" y="347" width="117" height="117"/><circle class="cls-2" cx="62.4" cy="360.22" r="3.41"/><circle class="cls-2" cx="69.16" cy="441.5" r="3.93"/><circle class="cls-2" cx="113.02" cy="377.26" r="5.07"/><circle class="cls-2" cx="143.38" cy="379.46" r="2.67"/><circle class="cls-2" cx="131.01" cy="444.06" r="2.67"/><circle class="cls-2" cx="84.61" cy="407.19" r="2.67"/><circle class="cls-2" cx="140.53" cy="411.84" r="4.73"/><rect x="-70.6" y="347" width="117" height="117"/><circle class="cls-2" cx="-2.98" cy="377.26" r="5.07"/><circle class="cls-2" cx="27.38" cy="379.46" r="2.67"/><circle class="cls-2" cx="15.01" cy="444.06" r="2.67"/><circle class="cls-2" cx="24.53" cy="411.84" r="4.73"/><rect x="579" y="231" width="117" height="117"/><rect x="463" y="231" width="117" height="117"/><circle class="cls-2" cx="480" cy="244.22" r="3.41"/><circle class="cls-2" cx="486.76" cy="325.5" r="3.93"/><circle class="cls-2" cx="530.62" cy="261.26" r="5.07"/><circle class="cls-2" cx="560.98" cy="263.46" r="2.67"/><circle class="cls-2" cx="548.61" cy="328.06" r="2.67"/><circle class="cls-2" cx="502.21" cy="291.19" r="2.67"/><circle class="cls-2" cx="558.13" cy="295.84" r="4.73"/><rect x="347" y="231" width="117" height="117"/><circle class="cls-2" cx="364" cy="244.22" r="3.41"/><circle class="cls-2" cx="370.76" cy="325.5" r="3.93"/><circle class="cls-2" cx="414.62" cy="261.26" r="5.07"/><circle class="cls-2" cx="444.98" cy="263.46" r="2.67"/><circle class="cls-2" cx="432.61" cy="328.06" r="2.67"/><circle class="cls-2" cx="386.21" cy="291.19" r="2.67"/><circle class="cls-2" cx="442.13" cy="295.84" r="4.73"/><rect x="231" y="231" width="117" height="117"/><circle class="cls-2" cx="248" cy="244.22" r="3.41"/><circle class="cls-2" cx="254.76" cy="325.5" r="3.93"/><circle class="cls-2" cx="298.62" cy="261.26" r="5.07"/><circle class="cls-2" cx="328.98" cy="263.46" r="2.67"/><circle class="cls-2" cx="316.61" cy="328.06" r="2.67"/><circle class="cls-2" cx="270.21" cy="291.19" r="2.67"/><circle class="cls-2" cx="326.13" cy="295.84" r="4.73"/><rect x="115" y="231" width="117" height="117"/><circle class="cls-2" cx="132" cy="244.22" r="3.41"/><circle class="cls-2" cx="138.76" cy="325.5" r="3.93"/><circle class="cls-2" cx="182.62" cy="261.26" r="5.07"/><circle class="cls-2" cx="212.98" cy="263.46" r="2.67"/><circle class="cls-2" cx="200.61" cy="328.06" r="2.67"/><circle class="cls-2" cx="154.21" cy="291.19" r="2.67"/><circle class="cls-2" cx="210.13" cy="295.84" r="4.73"/><rect x="-1" y="231" width="117" height="117"/><circle class="cls-2" cx="16" cy="244.22" r="3.41"/><circle class="cls-2" cx="22.76" cy="325.5" r="3.93"/><circle class="cls-2" cx="66.62" cy="261.26" r="5.07"/><circle class="cls-2" cx="96.98" cy="263.46" r="2.67"/><circle class="cls-2" cx="84.61" cy="328.06" r="2.67"/><circle class="cls-2" cx="38.21" cy="291.19" r="2.67"/><circle class="cls-2" cx="94.13" cy="295.84" r="4.73"/><rect x="532.6" y="115" width="117" height="117"/><circle class="cls-2" cx="549.6" cy="128.22" r="3.41"/><circle class="cls-2" cx="556.36" cy="209.5" r="3.93"/><circle class="cls-2" cx="571.81" cy="175.19" r="2.67"/><rect x="416.6" y="115" width="117" height="117"/><circle class="cls-2" cx="433.6" cy="128.22" r="3.41"/><circle class="cls-2" cx="440.36" cy="209.5" r="3.93"/><circle class="cls-2" cx="484.22" cy="145.26" r="5.07"/><circle class="cls-2" cx="514.58" cy="147.46" r="2.67"/><circle class="cls-2" cx="502.21" cy="212.06" r="2.67"/><circle class="cls-2" cx="455.81" cy="175.19" r="2.67"/><circle class="cls-2" cx="511.73" cy="179.84" r="4.73"/><rect x="300.6" y="115" width="117" height="117"/><circle class="cls-2" cx="317.6" cy="128.22" r="3.41"/><circle class="cls-2" cx="324.36" cy="209.5" r="3.93"/><circle class="cls-2" cx="368.22" cy="145.26" r="5.07"/><circle class="cls-2" cx="398.58" cy="147.46" r="2.67"/><circle class="cls-2" cx="386.21" cy="212.06" r="2.67"/><circle class="cls-2" cx="339.81" cy="175.19" r="2.67"/><circle class="cls-2" cx="395.73" cy="179.84" r="4.73"/><rect x="184.6" y="115" width="117" height="117"/><circle class="cls-2" cx="201.6" cy="128.22" r="3.41"/><circle class="cls-2" cx="208.36" cy="209.5" r="3.93"/><circle class="cls-2" cx="252.22" cy="145.26" r="5.07"/><circle class="cls-2" cx="282.58" cy="147.46" r="2.67"/><circle class="cls-2" cx="270.21" cy="212.06" r="2.67"/><circle class="cls-2" cx="223.81" cy="175.19" r="2.67"/><circle class="cls-2" cx="279.73" cy="179.84" r="4.73"/><rect x="68.6" y="115" width="117" height="117"/><circle class="cls-2" cx="85.6" cy="128.22" r="3.41"/><circle class="cls-2" cx="92.36" cy="209.5" r="3.93"/><circle class="cls-2" cx="136.22" cy="145.26" r="5.07"/><circle class="cls-2" cx="166.58" cy="147.46" r="2.67"/><circle class="cls-2" cx="154.21" cy="212.06" r="2.67"/><circle class="cls-2" cx="107.81" cy="175.19" r="2.67"/><circle class="cls-2" cx="163.73" cy="179.84" r="4.73"/><rect x="-47.4" y="115" width="117" height="117"/><circle class="cls-2" cx="20.22" cy="145.26" r="5.07"/><circle class="cls-2" cx="50.58" cy="147.46" r="2.67"/><circle class="cls-2" cx="38.21" cy="212.06" r="2.67"/><circle class="cls-2" cx="47.73" cy="179.84" r="4.73"/><rect x="486.2" y="-1" width="117" height="117"/><circle class="cls-2" cx="503.2" cy="12.22" r="3.41"/><circle class="cls-2" cx="509.96" cy="93.5" r="3.93"/><circle class="cls-2" cx="553.82" cy="29.26" r="5.07"/><circle class="cls-2" cx="571.81" cy="96.06" r="2.67"/><circle class="cls-2" cx="525.41" cy="59.19" r="2.67"/><circle class="cls-2" cx="581.33" cy="63.84" r="4.73"/><rect x="370.2" y="-1" width="117" height="117"/><circle class="cls-2" cx="387.2" cy="12.22" r="3.41"/><circle class="cls-2" cx="393.96" cy="93.5" r="3.93"/><circle class="cls-2" cx="437.82" cy="29.26" r="5.07"/><circle class="cls-2" cx="468.18" cy="31.46" r="2.67"/><circle class="cls-2" cx="455.81" cy="96.06" r="2.67"/><circle class="cls-2" cx="409.41" cy="59.19" r="2.67"/><circle class="cls-2" cx="465.33" cy="63.84" r="4.73"/><rect x="254.2" y="-1" width="117" height="117"/><circle class="cls-2" cx="271.2" cy="12.22" r="3.41"/><circle class="cls-2" cx="277.96" cy="93.5" r="3.93"/><circle class="cls-2" cx="321.82" cy="29.26" r="5.07"/><circle class="cls-2" cx="352.18" cy="31.46" r="2.67"/><circle class="cls-2" cx="339.81" cy="96.06" r="2.67"/><circle class="cls-2" cx="293.41" cy="59.19" r="2.67"/><circle class="cls-2" cx="349.33" cy="63.84" r="4.73"/><rect x="138.2" y="-1" width="117" height="117"/><circle class="cls-2" cx="155.2" cy="12.22" r="3.41"/><circle class="cls-2" cx="161.96" cy="93.5" r="3.93"/><circle class="cls-2" cx="205.82" cy="29.26" r="5.07"/><circle class="cls-2" cx="236.18" cy="31.46" r="2.67"/><circle class="cls-2" cx="223.81" cy="96.06" r="2.67"/><circle class="cls-2" cx="177.41" cy="59.19" r="2.67"/><circle class="cls-2" cx="233.33" cy="63.84" r="4.73"/><rect x="22.2" y="-1" width="117" height="117"/><circle class="cls-2" cx="39.2" cy="12.22" r="3.41"/><circle class="cls-2" cx="45.96" cy="93.5" r="3.93"/><circle class="cls-2" cx="89.82" cy="29.26" r="5.07"/><circle class="cls-2" cx="120.18" cy="31.46" r="2.67"/><circle class="cls-2" cx="107.81" cy="96.06" r="2.67"/><circle class="cls-2" cx="61.41" cy="59.19" r="2.67"/><circle class="cls-2" cx="117.33" cy="63.84" r="4.73"/><rect x="-93.8" y="-1" width="117" height="117"/><circle class="cls-2" cx="4.18" cy="31.46" r="2.67"/><circle class="cls-2" cx="1.33" cy="63.84" r="4.73"/></pattern></defs><g id="Layer_2" data-name="Layer 2"><g id="Layer_1-2" data-name="Layer 1"><rect class="cls-3" width="1920" height="1080"/></g></g></svg>