<svg xmlns="http://www.w3.org/2000/svg" xmlns:xlink="http://www.w3.org/1999/xlink" viewBox="0 0 1920 1080"><defs><style>.cls-1{fill:none;}.cls-2{fill:#fff;}.cls-3{fill:url(#New_Pattern_Swatch_1);}</style><pattern id="New_Pattern_Swatch_1" data-name="New Pattern Swatch 1" width="580" height="580" patternUnits="userSpaceOnUse" viewBox="0 0 580 580"><rect class="cls-1" width="580" height="580"/><rect x="486.2" y="579" width="117" height="117"/><rect x="370.2" y="579" width="117" height="117"/><rect x="254.2" y="579" width="117" height="117"/><rect x="138.2" y="579" width="117" height="117"/><rect x="22.2" y="579" width="117" height="117"/><rect x="-93.8" y="579" width="117" height="117"/><rect x="555.8" y="463" width="117" height="117"/><circle class="cls-2" cx="577.6" cy="482.65" r="4.1"/><circle class="cls-2" cx="577.31" cy="558.91" r="4.73"/><rect x="439.8" y="463" width="117" height="117"/><circle class="cls-2" cx="461.6" cy="482.65" r="4.1"/><circle class="cls-2" cx="461.31" cy="558.91" r="4.73"/><circle class="cls-2" cx="504.52" cy="499.57" r="6.11"/><circle class="cls-2" cx="536.29" cy="493.78" r="3.21"/><circle class="cls-2" cx="497.29" cy="560.78" r="3.21"/><circle class="cls-2" cx="470.29" cy="524.78" r="3.21"/><circle class="cls-2" cx="522" cy="535.22" r="5.7"/><rect x="323.8" y="463" width="117" height="117"/><circle class="cls-2" cx="345.6" cy="482.65" r="4.1"/><circle class="cls-2" cx="345.31" cy="558.91" r="4.73"/><circle class="cls-2" cx="388.52" cy="499.57" r="6.11"/><circle class="cls-2" cx="420.29" cy="493.78" r="3.21"/><circle class="cls-2" cx="381.29" cy="560.78" r="3.21"/><circle class="cls-2" cx="354.29" cy="524.78" r="3.21"/><circle class="cls-2" cx="406" cy="535.22" r="5.7"/><rect x="207.8" y="463" width="117" height="117"/><circle class="cls-2" cx="229.6" cy="482.65" r="4.1"/><circle class="cls-2" cx="229.31" cy="558.91" r="4.73"/><circle class="cls-2" cx="272.52" cy="499.57" r="6.11"/><circle class="cls-2" cx="304.29" cy="493.78" r="3.21"/><circle class="cls-2" cx="265.29" cy="560.78" r="3.21"/><circle class="cls-2" cx="238.29" cy="524.78" r="3.21"/><circle class="cls-2" cx="290" cy="535.22" r="5.7"/><rect x="91.8" y="463" width="117" height="117"/><circle class="cls-2" cx="113.6" cy="482.65" r="4.1"/><circle class="cls-2" cx="113.31" cy="558.91" r="4.73"/><circle class="cls-2" cx="156.52" cy="499.57" r="6.11"/><circle class="cls-2" cx="188.29" cy="493.78" r="3.21"/><circle class="cls-2" cx="149.29" cy="560.78" r="3.21"/><circle class="cls-2" cx="122.29" cy="524.78" r="3.21"/><circle class="cls-2" cx="174" cy="535.22" r="5.7"/><rect x="-24.2" y="463" width="117" height="117"/><circle class="cls-2" cx="-2.4" cy="482.65" r="4.1"/><circle class="cls-2" cx="-2.69" cy="558.91" r="4.73"/><circle class="cls-2" cx="40.52" cy="499.57" r="6.11"/><circle class="cls-2" cx="72.29" cy="493.78" r="3.21"/><circle class="cls-2" cx="33.29" cy="560.78" r="3.21"/><circle class="cls-2" cx="6.29" cy="524.78" r="3.21"/><circle class="cls-2" cx="58" cy="535.22" r="5.7"/><rect x="509.4" y="347" width="117" height="117"/><circle class="cls-2" cx="531.2" cy="366.65" r="4.1"/><circle class="cls-2" cx="530.91" cy="442.91" r="4.73"/><circle class="cls-2" cx="574.12" cy="383.57" r="6.11"/><circle class="cls-2" cx="566.89" cy="444.78" r="3.21"/><circle class="cls-2" cx="539.89" cy="408.78" r="3.21"/><rect x="393.4" y="347" width="117" height="117"/><circle class="cls-2" cx="415.2" cy="366.65" r="4.1"/><circle class="cls-2" cx="414.91" cy="442.91" r="4.73"/><circle class="cls-2" cx="458.12" cy="383.57" r="6.11"/><circle class="cls-2" cx="489.89" cy="377.78" r="3.21"/><circle class="cls-2" cx="450.89" cy="444.78" r="3.21"/><circle class="cls-2" cx="423.89" cy="408.78" r="3.21"/><circle class="cls-2" cx="475.6" cy="419.22" r="5.7"/><rect x="277.4" y="347" width="117" height="117"/><circle class="cls-2" cx="299.2" cy="366.65" r="4.1"/><circle class="cls-2" cx="298.91" cy="442.91" r="4.73"/><circle class="cls-2" cx="342.12" cy="383.57" r="6.11"/><circle class="cls-2" cx="373.89" cy="377.78" r="3.21"/><circle class="cls-2" cx="334.89" cy="444.78" r="3.21"/><circle class="cls-2" cx="307.89" cy="408.78" r="3.21"/><circle class="cls-2" cx="359.6" cy="419.22" r="5.7"/><rect x="161.4" y="347" width="117" height="117"/><circle class="cls-2" cx="183.2" cy="366.65" r="4.1"/><circle class="cls-2" cx="182.91" cy="442.91" r="4.73"/><circle class="cls-2" cx="226.12" cy="383.57" r="6.11"/><circle class="cls-2" cx="257.89" cy="377.78" r="3.21"/><circle class="cls-2" cx="218.89" cy="444.78" r="3.21"/><circle class="cls-2" cx="191.89" cy="408.78" r="3.21"/><circle class="cls-2" cx="243.6" cy="419.22" r="5.7"/><rect x="45.4" y="347" width="117" height="117"/><circle class="cls-2" cx="67.2" cy="366.65" r="4.1"/><circle class="cls-2" cx="66.91" cy="442.91" r="4.73"/><circle class="cls-2" cx="110.12" cy="383.57" r="6.11"/><circle class="cls-2" cx="141.89" cy="377.78" r="3.21"/><circle class="cls-2" cx="102.89" cy="444.78" r="3.21"/><circle class="cls-2" cx="75.89" cy="408.78" r="3.21"/><circle class="cls-2" cx="127.6" cy="419.22" r="5.7"/><rect x="-70.6" y="347" width="117" height="117"/><circle class="cls-2" cx="-5.88" cy="383.57" r="6.11"/><circle class="cls-2" cx="25.89" cy="377.78" r="3.21"/><circle class="cls-2" cx="11.6" cy="419.22" r="5.7"/><rect x="579" y="231" width="117" height="117"/><rect x="463" y="231" width="117" height="117"/><circle class="cls-2" cx="484.8" cy="250.65" r="4.1"/><circle class="cls-2" cx="484.51" cy="326.91" r="4.73"/><circle class="cls-2" cx="527.72" cy="267.57" r="6.11"/><circle class="cls-2" cx="559.49" cy="261.78" r="3.21"/><circle class="cls-2" cx="520.49" cy="328.78" r="3.21"/><circle class="cls-2" cx="493.49" cy="292.78" r="3.21"/><circle class="cls-2" cx="545.2" cy="303.22" r="5.7"/><rect x="347" y="231" width="117" height="117"/><circle class="cls-2" cx="368.8" cy="250.65" r="4.1"/><circle class="cls-2" cx="368.51" cy="326.91" r="4.73"/><circle class="cls-2" cx="411.72" cy="267.57" r="6.11"/><circle class="cls-2" cx="443.49" cy="261.78" r="3.21"/><circle class="cls-2" cx="404.49" cy="328.78" r="3.21"/><circle class="cls-2" cx="377.49" cy="292.78" r="3.21"/><circle class="cls-2" cx="429.2" cy="303.22" r="5.7"/><rect x="231" y="231" width="117" height="117"/><circle class="cls-2" cx="252.8" cy="250.65" r="4.1"/><circle class="cls-2" cx="252.51" cy="326.91" r="4.73"/><circle class="cls-2" cx="295.72" cy="267.57" r="6.11"/><circle class="cls-2" cx="327.49" cy="261.78" r="3.21"/><circle class="cls-2" cx="288.49" cy="328.78" r="3.21"/><circle class="cls-2" cx="261.49" cy="292.78" r="3.21"/><circle class="cls-2" cx="313.2" cy="303.22" r="5.7"/><rect x="115" y="231" width="117" height="117"/><circle class="cls-2" cx="136.8" cy="250.65" r="4.1"/><circle class="cls-2" cx="136.51" cy="326.91" r="4.73"/><circle class="cls-2" cx="179.72" cy="267.57" r="6.11"/><circle class="cls-2" cx="211.49" cy="261.78" r="3.21"/><circle class="cls-2" cx="172.49" cy="328.78" r="3.21"/><circle class="cls-2" cx="145.49" cy="292.78" r="3.21"/><circle class="cls-2" cx="197.2" cy="303.22" r="5.7"/><rect x="-1" y="231" width="117" height="117"/><circle class="cls-2" cx="20.8" cy="250.65" r="4.1"/><circle class="cls-2" cx="20.51" cy="326.91" r="4.73"/><circle class="cls-2" cx="63.72" cy="267.57" r="6.11"/><circle class="cls-2" cx="95.49" cy="261.78" r="3.21"/><circle class="cls-2" cx="56.49" cy="328.78" r="3.21"/><circle class="cls-2" cx="29.49" cy="292.78" r="3.21"/><circle class="cls-2" cx="81.2" cy="303.22" r="5.7"/><rect x="532.6" y="115" width="117" height="117"/><circle class="cls-2" cx="554.4" cy="134.65" r="4.1"/><circle class="cls-2" cx="554.11" cy="210.91" r="4.73"/><circle class="cls-2" cx="563.09" cy="176.78" r="3.21"/><rect x="416.6" y="115" width="117" height="117"/><circle class="cls-2" cx="438.4" cy="134.65" r="4.1"/><circle class="cls-2" cx="438.11" cy="210.91" r="4.73"/><circle class="cls-2" cx="481.32" cy="151.57" r="6.11"/><circle class="cls-2" cx="513.09" cy="145.78" r="3.21"/><circle class="cls-2" cx="474.09" cy="212.78" r="3.21"/><circle class="cls-2" cx="447.09" cy="176.78" r="3.21"/><circle class="cls-2" cx="498.8" cy="187.22" r="5.7"/><rect x="300.6" y="115" width="117" height="117"/><circle class="cls-2" cx="322.4" cy="134.65" r="4.1"/><circle class="cls-2" cx="322.11" cy="210.91" r="4.73"/><circle class="cls-2" cx="365.32" cy="151.57" r="6.11"/><circle class="cls-2" cx="397.09" cy="145.78" r="3.21"/><circle class="cls-2" cx="358.09" cy="212.78" r="3.21"/><circle class="cls-2" cx="331.09" cy="176.78" r="3.21"/><circle class="cls-2" cx="382.8" cy="187.22" r="5.7"/><rect x="184.6" y="115" width="117" height="117"/><circle class="cls-2" cx="206.4" cy="134.65" r="4.1"/><circle class="cls-2" cx="206.11" cy="210.91" r="4.73"/><circle class="cls-2" cx="249.32" cy="151.57" r="6.11"/><circle class="cls-2" cx="281.09" cy="145.78" r="3.21"/><circle class="cls-2" cx="242.09" cy="212.78" r="3.21"/><circle class="cls-2" cx="215.09" cy="176.78" r="3.21"/><circle class="cls-2" cx="266.8" cy="187.22" r="5.7"/><rect x="68.6" y="115" width="117" height="117"/><circle class="cls-2" cx="90.4" cy="134.65" r="4.1"/><circle class="cls-2" cx="90.11" cy="210.91" r="4.73"/><circle class="cls-2" cx="133.32" cy="151.57" r="6.11"/><circle class="cls-2" cx="165.09" cy="145.78" r="3.21"/><circle class="cls-2" cx="126.09" cy="212.78" r="3.21"/><circle class="cls-2" cx="99.09" cy="176.78" r="3.21"/><circle class="cls-2" cx="150.8" cy="187.22" r="5.7"/><rect x="-47.4" y="115" width="117" height="117"/><circle class="cls-2" cx="17.32" cy="151.57" r="6.11"/><circle class="cls-2" cx="49.09" cy="145.78" r="3.21"/><circle class="cls-2" cx="10.09" cy="212.78" r="3.21"/><circle class="cls-2" cx="34.8" cy="187.22" r="5.7"/><rect x="486.2" y="-1" width="117" height="117"/><circle class="cls-2" cx="508" cy="18.65" r="4.1"/><circle class="cls-2" cx="507.71" cy="94.91" r="4.73"/><circle class="cls-2" cx="550.92" cy="35.57" r="6.11"/><circle class="cls-2" cx="582.69" cy="29.78" r="3.21"/><circle class="cls-2" cx="543.69" cy="96.78" r="3.21"/><circle class="cls-2" cx="516.69" cy="60.78" r="3.21"/><circle class="cls-2" cx="568.4" cy="71.22" r="5.7"/><rect x="370.2" y="-1" width="117" height="117"/><circle class="cls-2" cx="392" cy="18.65" r="4.1"/><circle class="cls-2" cx="391.71" cy="94.91" r="4.73"/><circle class="cls-2" cx="434.92" cy="35.57" r="6.11"/><circle class="cls-2" cx="466.69" cy="29.78" r="3.21"/><circle class="cls-2" cx="427.69" cy="96.78" r="3.21"/><circle class="cls-2" cx="400.69" cy="60.78" r="3.21"/><circle class="cls-2" cx="452.4" cy="71.22" r="5.7"/><rect x="254.2" y="-1" width="117" height="117"/><circle class="cls-2" cx="276" cy="18.65" r="4.1"/><circle class="cls-2" cx="275.71" cy="94.91" r="4.73"/><circle class="cls-2" cx="318.92" cy="35.57" r="6.11"/><circle class="cls-2" cx="350.69" cy="29.78" r="3.21"/><circle class="cls-2" cx="311.69" cy="96.78" r="3.21"/><circle class="cls-2" cx="284.69" cy="60.78" r="3.21"/><circle class="cls-2" cx="336.4" cy="71.22" r="5.7"/><rect x="138.2" y="-1" width="117" height="117"/><circle class="cls-2" cx="160" cy="18.65" r="4.1"/><circle class="cls-2" cx="159.71" cy="94.91" r="4.73"/><circle class="cls-2" cx="202.92" cy="35.57" r="6.11"/><circle class="cls-2" cx="234.69" cy="29.78" r="3.21"/><circle class="cls-2" cx="195.69" cy="96.78" r="3.21"/><circle class="cls-2" cx="168.69" cy="60.78" r="3.21"/><circle class="cls-2" cx="220.4" cy="71.22" r="5.7"/><rect x="22.2" y="-1" width="117" height="117"/><circle class="cls-2" cx="44" cy="18.65" r="4.1"/><circle class="cls-2" cx="43.71" cy="94.91" r="4.73"/><circle class="cls-2" cx="86.92" cy="35.57" r="6.11"/><circle class="cls-2" cx="118.69" cy="29.78" r="3.21"/><circle class="cls-2" cx="79.69" cy="96.78" r="3.21"/><circle class="cls-2" cx="52.69" cy="60.78" r="3.21"/><circle class="cls-2" cx="104.4" cy="71.22" r="5.7"/><rect x="-93.8" y="-1" width="117" height="117"/><circle class="cls-2" cx="2.69" cy="29.78" r="3.21"/></pattern></defs><g id="Layer_2" data-name="Layer 2"><g id="Layer_1-2" data-name="Layer 1"><rect class="cls-3" width="1920" height="1080"/></g></g></svg>