<svg xmlns="http://www.w3.org/2000/svg" xmlns:xlink="http://www.w3.org/1999/xlink" viewBox="0 0 1365.57 766.67"><defs><style>.cls-1{fill:none;}.cls-2{fill:#2d2b32;}.cls-3{fill:#f7f8f3;}.cls-4{fill:url(#New_Pattern_Swatch_1);}</style><pattern id="New_Pattern_Swatch_1" data-name="New Pattern Swatch 1" width="710" height="710" patternTransform="translate(227.85 -20.34) scale(0.5)" patternUnits="userSpaceOnUse" viewBox="0 0 710 710"><rect class="cls-1" width="710" height="710"/><rect class="cls-2" x="596.4" y="568" width="142" height="142"/><circle class="cls-3" cx="620.02" cy="596.62" r="5.41"/><circle class="cls-3" cx="655.59" cy="665.65" r="5.41"/><circle class="cls-3" cx="625.51" cy="644.41" r="5.41"/><circle class="cls-3" cx="675.49" cy="585.47" r="5.41"/><circle class="cls-3" cx="700.52" cy="687.12" r="5.41"/><circle class="cls-3" cx="675" cy="628.95" r="5.41"/><circle class="cls-3" cx="625.43" cy="692.53" r="5.41"/><rect class="cls-2" x="454.4" y="568" width="142" height="142"/><circle class="cls-3" cx="478.02" cy="596.62" r="5.41"/><circle class="cls-3" cx="513.59" cy="665.65" r="5.41"/><circle class="cls-3" cx="483.51" cy="644.41" r="5.41"/><circle class="cls-3" cx="533.49" cy="585.47" r="5.41"/><circle class="cls-3" cx="558.52" cy="687.12" r="5.41"/><circle class="cls-3" cx="577.52" cy="602.3" r="5.41"/><circle class="cls-3" cx="533" cy="628.95" r="5.41"/><circle class="cls-3" cx="577.29" cy="647.51" r="5.41"/><circle class="cls-3" cx="483.43" cy="692.53" r="5.41"/><rect class="cls-2" x="312.4" y="568" width="142" height="142"/><circle class="cls-3" cx="336.02" cy="596.62" r="5.41"/><circle class="cls-3" cx="371.59" cy="665.65" r="5.41"/><circle class="cls-3" cx="341.51" cy="644.41" r="5.41"/><circle class="cls-3" cx="391.49" cy="585.47" r="5.41"/><circle class="cls-3" cx="416.52" cy="687.12" r="5.41"/><circle class="cls-3" cx="435.52" cy="602.3" r="5.41"/><circle class="cls-3" cx="391" cy="628.95" r="5.41"/><circle class="cls-3" cx="435.29" cy="647.51" r="5.41"/><circle class="cls-3" cx="341.43" cy="692.53" r="5.41"/><rect class="cls-2" x="170.4" y="568" width="142" height="142"/><circle class="cls-3" cx="194.02" cy="596.62" r="5.41"/><circle class="cls-3" cx="229.59" cy="665.65" r="5.41"/><circle class="cls-3" cx="199.51" cy="644.41" r="5.41"/><circle class="cls-3" cx="249.49" cy="585.47" r="5.41"/><circle class="cls-3" cx="274.52" cy="687.12" r="5.41"/><circle class="cls-3" cx="293.52" cy="602.3" r="5.41"/><circle class="cls-3" cx="249" cy="628.95" r="5.41"/><circle class="cls-3" cx="293.29" cy="647.51" r="5.41"/><circle class="cls-3" cx="199.43" cy="692.53" r="5.41"/><rect class="cls-2" x="28.4" y="568" width="142" height="142"/><circle class="cls-3" cx="52.02" cy="596.62" r="5.41"/><circle class="cls-3" cx="87.59" cy="665.65" r="5.41"/><circle class="cls-3" cx="57.51" cy="644.41" r="5.41"/><circle class="cls-3" cx="107.49" cy="585.47" r="5.41"/><circle class="cls-3" cx="132.52" cy="687.12" r="5.41"/><circle class="cls-3" cx="151.52" cy="602.3" r="5.41"/><circle class="cls-3" cx="107" cy="628.95" r="5.41"/><circle class="cls-3" cx="151.29" cy="647.51" r="5.41"/><circle class="cls-3" cx="57.43" cy="692.53" r="5.41"/><rect class="cls-2" x="-113.6" y="568" width="142" height="142"/><circle class="cls-3" cx="9.52" cy="602.3" r="5.41"/><circle class="cls-3" cx="9.29" cy="647.51" r="5.41"/><rect class="cls-2" x="653.2" y="426" width="142" height="142"/><circle class="cls-3" cx="676.82" cy="454.62" r="5.41"/><circle class="cls-3" cx="712.39" cy="523.65" r="5.41"/><circle class="cls-3" cx="682.31" cy="502.41" r="5.41"/><circle class="cls-3" cx="682.23" cy="550.53" r="5.41"/><rect class="cls-2" x="511.2" y="426" width="142" height="142"/><circle class="cls-3" cx="534.82" cy="454.62" r="5.41"/><circle class="cls-3" cx="570.39" cy="523.65" r="5.41"/><circle class="cls-3" cx="540.31" cy="502.41" r="5.41"/><circle class="cls-3" cx="590.29" cy="443.47" r="5.41"/><circle class="cls-3" cx="615.32" cy="545.12" r="5.41"/><circle class="cls-3" cx="634.32" cy="460.3" r="5.41"/><circle class="cls-3" cx="589.8" cy="486.95" r="5.41"/><circle class="cls-3" cx="634.09" cy="505.51" r="5.41"/><circle class="cls-3" cx="540.23" cy="550.53" r="5.41"/><rect class="cls-2" x="369.2" y="426" width="142" height="142"/><circle class="cls-3" cx="392.82" cy="454.62" r="5.41"/><circle class="cls-3" cx="428.39" cy="523.65" r="5.41"/><circle class="cls-3" cx="398.31" cy="502.41" r="5.41"/><circle class="cls-3" cx="448.29" cy="443.47" r="5.41"/><circle class="cls-3" cx="473.32" cy="545.12" r="5.41"/><circle class="cls-3" cx="492.32" cy="460.3" r="5.41"/><circle class="cls-3" cx="447.8" cy="486.95" r="5.41"/><circle class="cls-3" cx="492.09" cy="505.51" r="5.41"/><circle class="cls-3" cx="398.23" cy="550.53" r="5.41"/><rect class="cls-2" x="227.2" y="426" width="142" height="142"/><circle class="cls-3" cx="250.82" cy="454.62" r="5.41"/><circle class="cls-3" cx="286.39" cy="523.65" r="5.41"/><circle class="cls-3" cx="256.31" cy="502.41" r="5.41"/><circle class="cls-3" cx="306.29" cy="443.47" r="5.41"/><circle class="cls-3" cx="331.32" cy="545.12" r="5.41"/><circle class="cls-3" cx="350.32" cy="460.3" r="5.41"/><circle class="cls-3" cx="305.8" cy="486.95" r="5.41"/><circle class="cls-3" cx="350.09" cy="505.51" r="5.41"/><circle class="cls-3" cx="256.23" cy="550.53" r="5.41"/><rect class="cls-2" x="85.2" y="426" width="142" height="142"/><circle class="cls-3" cx="108.82" cy="454.62" r="5.41"/><circle class="cls-3" cx="144.39" cy="523.65" r="5.41"/><circle class="cls-3" cx="114.31" cy="502.41" r="5.41"/><circle class="cls-3" cx="164.29" cy="443.47" r="5.41"/><circle class="cls-3" cx="189.32" cy="545.12" r="5.41"/><circle class="cls-3" cx="208.32" cy="460.3" r="5.41"/><circle class="cls-3" cx="163.8" cy="486.95" r="5.41"/><circle class="cls-3" cx="208.09" cy="505.51" r="5.41"/><circle class="cls-3" cx="114.23" cy="550.53" r="5.41"/><rect class="cls-2" x="-56.8" y="426" width="142" height="142"/><circle class="cls-3" cx="2.39" cy="523.65" r="5.41"/><circle class="cls-3" cx="22.29" cy="443.47" r="5.41"/><circle class="cls-3" cx="47.32" cy="545.12" r="5.41"/><circle class="cls-3" cx="66.32" cy="460.3" r="5.41"/><circle class="cls-3" cx="21.8" cy="486.95" r="5.41"/><circle class="cls-3" cx="66.09" cy="505.51" r="5.41"/><rect class="cls-2" x="568" y="284" width="142" height="142"/><circle class="cls-3" cx="591.62" cy="312.62" r="5.41"/><circle class="cls-3" cx="627.19" cy="381.65" r="5.41"/><circle class="cls-3" cx="597.11" cy="360.41" r="5.41"/><circle class="cls-3" cx="647.09" cy="301.47" r="5.41"/><circle class="cls-3" cx="672.12" cy="403.12" r="5.41"/><circle class="cls-3" cx="691.12" cy="318.3" r="5.41"/><circle class="cls-3" cx="646.6" cy="344.95" r="5.41"/><circle class="cls-3" cx="690.89" cy="363.51" r="5.41"/><circle class="cls-3" cx="597.03" cy="408.53" r="5.41"/><rect class="cls-2" x="426" y="284" width="142" height="142"/><circle class="cls-3" cx="449.62" cy="312.62" r="5.41"/><circle class="cls-3" cx="485.19" cy="381.65" r="5.41"/><circle class="cls-3" cx="455.11" cy="360.41" r="5.41"/><circle class="cls-3" cx="505.09" cy="301.47" r="5.41"/><circle class="cls-3" cx="530.12" cy="403.12" r="5.41"/><circle class="cls-3" cx="549.12" cy="318.3" r="5.41"/><circle class="cls-3" cx="504.6" cy="344.95" r="5.41"/><circle class="cls-3" cx="548.89" cy="363.51" r="5.41"/><circle class="cls-3" cx="455.03" cy="408.53" r="5.41"/><rect class="cls-2" x="284" y="284" width="142" height="142"/><circle class="cls-3" cx="307.62" cy="312.62" r="5.41"/><circle class="cls-3" cx="343.19" cy="381.65" r="5.41"/><circle class="cls-3" cx="313.11" cy="360.41" r="5.41"/><circle class="cls-3" cx="363.09" cy="301.47" r="5.41"/><circle class="cls-3" cx="388.12" cy="403.12" r="5.41"/><circle class="cls-3" cx="407.12" cy="318.3" r="5.41"/><circle class="cls-3" cx="362.6" cy="344.95" r="5.41"/><circle class="cls-3" cx="406.89" cy="363.51" r="5.41"/><circle class="cls-3" cx="313.03" cy="408.53" r="5.41"/><rect class="cls-2" x="142" y="284" width="142" height="142"/><circle class="cls-3" cx="165.62" cy="312.62" r="5.41"/><circle class="cls-3" cx="201.19" cy="381.65" r="5.41"/><circle class="cls-3" cx="171.11" cy="360.41" r="5.41"/><circle class="cls-3" cx="221.09" cy="301.47" r="5.41"/><circle class="cls-3" cx="246.12" cy="403.12" r="5.41"/><circle class="cls-3" cx="265.12" cy="318.3" r="5.41"/><circle class="cls-3" cx="220.6" cy="344.95" r="5.41"/><circle class="cls-3" cx="264.89" cy="363.51" r="5.41"/><circle class="cls-3" cx="171.03" cy="408.53" r="5.41"/><rect class="cls-2" y="284" width="142" height="142"/><circle class="cls-3" cx="23.62" cy="312.62" r="5.41"/><circle class="cls-3" cx="59.19" cy="381.65" r="5.41"/><circle class="cls-3" cx="29.11" cy="360.41" r="5.41"/><circle class="cls-3" cx="79.09" cy="301.47" r="5.41"/><circle class="cls-3" cx="104.12" cy="403.12" r="5.41"/><circle class="cls-3" cx="123.12" cy="318.3" r="5.41"/><circle class="cls-3" cx="78.6" cy="344.95" r="5.41"/><circle class="cls-3" cx="122.89" cy="363.51" r="5.41"/><circle class="cls-3" cx="29.03" cy="408.53" r="5.41"/><rect class="cls-2" x="624.8" y="142" width="142" height="142"/><circle class="cls-3" cx="648.42" cy="170.62" r="5.41"/><circle class="cls-3" cx="683.99" cy="239.65" r="5.41"/><circle class="cls-3" cx="653.91" cy="218.41" r="5.41"/><circle class="cls-3" cx="703.89" cy="159.47" r="5.41"/><circle class="cls-3" cx="703.4" cy="202.95" r="5.41"/><circle class="cls-3" cx="653.83" cy="266.53" r="5.41"/><rect class="cls-2" x="482.8" y="142" width="142" height="142"/><circle class="cls-3" cx="506.42" cy="170.62" r="5.41"/><circle class="cls-3" cx="541.99" cy="239.65" r="5.41"/><circle class="cls-3" cx="511.91" cy="218.41" r="5.41"/><circle class="cls-3" cx="561.89" cy="159.47" r="5.41"/><circle class="cls-3" cx="586.92" cy="261.12" r="5.41"/><circle class="cls-3" cx="605.92" cy="176.3" r="5.41"/><circle class="cls-3" cx="561.4" cy="202.95" r="5.41"/><circle class="cls-3" cx="605.69" cy="221.51" r="5.41"/><circle class="cls-3" cx="511.83" cy="266.53" r="5.41"/><rect class="cls-2" x="340.8" y="142" width="142" height="142"/><circle class="cls-3" cx="364.42" cy="170.62" r="5.41"/><circle class="cls-3" cx="399.99" cy="239.65" r="5.41"/><circle class="cls-3" cx="369.91" cy="218.41" r="5.41"/><circle class="cls-3" cx="419.89" cy="159.47" r="5.41"/><circle class="cls-3" cx="444.92" cy="261.12" r="5.41"/><circle class="cls-3" cx="463.92" cy="176.3" r="5.41"/><circle class="cls-3" cx="419.4" cy="202.95" r="5.41"/><circle class="cls-3" cx="463.69" cy="221.51" r="5.41"/><circle class="cls-3" cx="369.83" cy="266.53" r="5.41"/><rect class="cls-2" x="198.8" y="142" width="142" height="142"/><circle class="cls-3" cx="222.42" cy="170.62" r="5.41"/><circle class="cls-3" cx="257.99" cy="239.65" r="5.41"/><circle class="cls-3" cx="227.91" cy="218.41" r="5.41"/><circle class="cls-3" cx="277.89" cy="159.47" r="5.41"/><circle class="cls-3" cx="302.92" cy="261.12" r="5.41"/><circle class="cls-3" cx="321.92" cy="176.3" r="5.41"/><circle class="cls-3" cx="277.4" cy="202.95" r="5.41"/><circle class="cls-3" cx="321.69" cy="221.51" r="5.41"/><circle class="cls-3" cx="227.83" cy="266.53" r="5.41"/><rect class="cls-2" x="56.8" y="142" width="142" height="142"/><circle class="cls-3" cx="80.42" cy="170.62" r="5.41"/><circle class="cls-3" cx="115.99" cy="239.65" r="5.41"/><circle class="cls-3" cx="85.91" cy="218.41" r="5.41"/><circle class="cls-3" cx="135.89" cy="159.47" r="5.41"/><circle class="cls-3" cx="160.92" cy="261.12" r="5.41"/><circle class="cls-3" cx="179.92" cy="176.3" r="5.41"/><circle class="cls-3" cx="135.4" cy="202.95" r="5.41"/><circle class="cls-3" cx="179.69" cy="221.51" r="5.41"/><circle class="cls-3" cx="85.83" cy="266.53" r="5.41"/><rect class="cls-2" x="-85.2" y="142" width="142" height="142"/><circle class="cls-3" cx="18.92" cy="261.12" r="5.41"/><circle class="cls-3" cx="37.92" cy="176.3" r="5.41"/><circle class="cls-3" cx="37.69" cy="221.51" r="5.41"/><rect class="cls-2" x="681.6" width="142" height="142"/><circle class="cls-3" cx="705.22" cy="28.62" r="5.41"/><circle class="cls-3" cx="710.71" cy="76.41" r="5.41"/><circle class="cls-3" cx="710.63" cy="124.53" r="5.41"/><rect class="cls-2" x="539.6" width="142" height="142"/><circle class="cls-3" cx="563.22" cy="28.62" r="5.41"/><circle class="cls-3" cx="598.79" cy="97.65" r="5.41"/><circle class="cls-3" cx="568.71" cy="76.41" r="5.41"/><circle class="cls-3" cx="618.69" cy="17.47" r="5.41"/><circle class="cls-3" cx="643.72" cy="119.12" r="5.41"/><circle class="cls-3" cx="662.72" cy="34.3" r="5.41"/><circle class="cls-3" cx="618.2" cy="60.95" r="5.41"/><circle class="cls-3" cx="662.49" cy="79.51" r="5.41"/><circle class="cls-3" cx="568.63" cy="124.53" r="5.41"/><rect class="cls-2" x="397.6" width="142" height="142"/><circle class="cls-3" cx="421.22" cy="28.62" r="5.41"/><circle class="cls-3" cx="456.79" cy="97.65" r="5.41"/><circle class="cls-3" cx="426.71" cy="76.41" r="5.41"/><circle class="cls-3" cx="476.69" cy="17.47" r="5.41"/><circle class="cls-3" cx="501.72" cy="119.12" r="5.41"/><circle class="cls-3" cx="520.72" cy="34.3" r="5.41"/><circle class="cls-3" cx="476.2" cy="60.95" r="5.41"/><circle class="cls-3" cx="520.49" cy="79.51" r="5.41"/><circle class="cls-3" cx="426.63" cy="124.53" r="5.41"/><rect class="cls-2" x="255.6" width="142" height="142"/><circle class="cls-3" cx="279.22" cy="28.62" r="5.41"/><circle class="cls-3" cx="314.79" cy="97.65" r="5.41"/><circle class="cls-3" cx="284.71" cy="76.41" r="5.41"/><circle class="cls-3" cx="334.69" cy="17.47" r="5.41"/><circle class="cls-3" cx="359.72" cy="119.12" r="5.41"/><circle class="cls-3" cx="378.72" cy="34.3" r="5.41"/><circle class="cls-3" cx="334.2" cy="60.95" r="5.41"/><circle class="cls-3" cx="378.49" cy="79.51" r="5.41"/><circle class="cls-3" cx="284.63" cy="124.53" r="5.41"/><rect class="cls-2" x="113.6" width="142" height="142"/><circle class="cls-3" cx="137.22" cy="28.62" r="5.41"/><circle class="cls-3" cx="172.79" cy="97.65" r="5.41"/><circle class="cls-3" cx="142.71" cy="76.41" r="5.41"/><circle class="cls-3" cx="192.69" cy="17.47" r="5.41"/><circle class="cls-3" cx="217.72" cy="119.12" r="5.41"/><circle class="cls-3" cx="236.72" cy="34.3" r="5.41"/><circle class="cls-3" cx="192.2" cy="60.95" r="5.41"/><circle class="cls-3" cx="236.49" cy="79.51" r="5.41"/><circle class="cls-3" cx="142.63" cy="124.53" r="5.41"/><rect class="cls-2" x="-28.4" width="142" height="142"/><circle class="cls-3" cx="-4.78" cy="28.62" r="5.41"/><circle class="cls-3" cx="30.79" cy="97.65" r="5.41"/><circle class="cls-3" cx="0.71" cy="76.41" r="5.41"/><circle class="cls-3" cx="50.69" cy="17.47" r="5.41"/><circle class="cls-3" cx="75.72" cy="119.12" r="5.41"/><circle class="cls-3" cx="94.72" cy="34.3" r="5.41"/><circle class="cls-3" cx="50.2" cy="60.95" r="5.41"/><circle class="cls-3" cx="94.49" cy="79.51" r="5.41"/><circle class="cls-3" cx="0.63" cy="124.53" r="5.41"/></pattern></defs><g id="Layer_2" data-name="Layer 2"><g id="Layer_1-2" data-name="Layer 1"><rect class="cls-4" width="1365.57" height="766.67"/></g></g></svg>